<svg width="1200" height="1200" viewBox="0 0 1200 1200" fill="none" xmlns="http://www.w3.org/2000/svg">
<path d="M0 51C0 22.8335 22.8335 0 51 0H549C577.167 0 600 22.8335 600 51V549C600 577.167 577.167 600 549 600H51C22.8335 600 0 577.167 0 549V51Z" fill="url(#paint0_radial_194_819)"/>
<path d="M0 651C0 622.833 22.8335 600 51 600H549C577.167 600 600 622.833 600 651V1149C600 1177.17 577.167 1200 549 1200H51C22.8335 1200 0 1177.17 0 1149V651Z" fill="url(#paint1_radial_194_819)"/>
<path d="M600 651C600 622.833 622.833 600 651 600H1149C1177.17 600 1200 622.833 1200 651V1149C1200 1177.17 1177.17 1200 1149 1200H651C622.833 1200 600 1177.17 600 1149V651Z" fill="url(#paint2_radial_194_819)"/>
<path d="M600 51C600 22.8335 622.833 0 651 0H1149C1177.17 0 1200 22.8335 1200 51V549C1200 577.167 1177.17 600 1149 600H651C622.833 600 600 577.167 600 549V51Z" fill="url(#paint3_radial_194_819)"/>
<path d="M523 600L176.59 0H869.41L523 600Z" fill="url(#paint4_radial_194_819)"/>
<path d="M600 677L0 1023.41V330.59L600 677Z" fill="url(#paint5_radial_194_819)"/>
<path d="M600 523L1200 176.59V869.41L600 523Z" fill="url(#paint6_radial_194_819)"/>
<path d="M677 600L1023.41 1200H330.59L677 600Z" fill="url(#paint7_radial_194_819)"/>
<path d="M523 600L869.41 1200H176.59L523 600Z" fill="url(#paint8_radial_194_819)"/>
<path d="M600 677L1200 330.59V1023.41L600 677Z" fill="url(#paint9_radial_194_819)"/>
<path d="M677 600L330.59 0H1023.41L677 600Z" fill="url(#paint10_radial_194_819)"/>
<path d="M600 523L0 869.41V176.59L600 523Z" fill="url(#paint11_radial_194_819)"/>
<rect x="291" y="405" width="618" height="389" rx="29" fill="black"/>
<path d="M363.897 628L354.216 587.934L344.535 628H327.09L308.782 564.067H327.282L336.963 606.721L347.89 564.067H360.542L371.469 606.721L381.054 564.067H399.649L381.342 628H363.897ZM444.944 628L441.685 618.319H415.135L411.876 628H393.951L418.01 564.067H438.714L462.868 628H444.944ZM428.362 578.445L419.448 604.421H437.372L428.362 578.445ZM475.975 628V578.445H458.051V564.067H510.29V578.445H492.462V628H475.975ZM546.848 629.15C527.678 629.15 512.725 615.731 512.725 596.082C512.725 576.336 527.678 563.013 546.848 563.013C562.76 563.013 571.003 571.735 575.22 580.17L561.034 586.88C558.926 581.8 553.462 577.582 546.848 577.582C536.88 577.582 529.499 585.634 529.499 596.082C529.499 606.529 536.88 614.581 546.848 614.581C553.462 614.581 558.926 610.363 561.034 605.283L575.22 611.993C571.099 620.236 562.76 629.15 546.848 629.15ZM625.387 628V602.312H598.836V628H582.35V564.067H598.836V587.934H625.387V564.067H641.873V628H625.387ZM653.396 628V564.067H685.41C699.788 564.067 707.648 573.748 707.648 585.346C707.648 596.848 699.788 606.338 685.41 606.338H669.882V628H653.396ZM690.874 585.25C690.874 580.841 687.615 577.966 683.206 577.966H669.882V592.343H683.206C687.615 592.343 690.874 589.564 690.874 585.25ZM752.248 628L748.989 618.319H722.439L719.18 628H701.256L725.314 564.067H746.018L770.173 628H752.248ZM735.666 578.445L726.752 604.421H744.676L735.666 578.445ZM774.895 628V564.067H806.909C821.287 564.067 829.146 573.748 829.146 585.346C829.146 596.848 821.287 606.338 806.909 606.338H791.381V628H774.895ZM812.372 585.25C812.372 580.841 809.114 577.966 804.704 577.966H791.381V592.343H804.704C809.114 592.343 812.372 589.564 812.372 585.25ZM873.747 628L870.488 618.319H843.937L840.679 628H822.754L846.813 564.067H867.517L891.671 628H873.747ZM857.165 578.445L848.251 604.421H866.175L857.165 578.445Z" fill="url(#paint12_linear_194_819)"/>
<defs>
<radialGradient id="paint0_radial_194_819" cx="0" cy="0" r="1" gradientUnits="userSpaceOnUse" gradientTransform="translate(600 600) rotate(90) scale(600)">
<stop/>
<stop offset="1" stop-color="#222222"/>
</radialGradient>
<radialGradient id="paint1_radial_194_819" cx="0" cy="0" r="1" gradientUnits="userSpaceOnUse" gradientTransform="translate(600 600) rotate(90) scale(600)">
<stop/>
<stop offset="1" stop-color="#222222"/>
</radialGradient>
<radialGradient id="paint2_radial_194_819" cx="0" cy="0" r="1" gradientUnits="userSpaceOnUse" gradientTransform="translate(600 600) rotate(90) scale(600)">
<stop/>
<stop offset="1" stop-color="#222222"/>
</radialGradient>
<radialGradient id="paint3_radial_194_819" cx="0" cy="0" r="1" gradientUnits="userSpaceOnUse" gradientTransform="translate(600 600) rotate(90) scale(600)">
<stop/>
<stop offset="1" stop-color="#222222"/>
</radialGradient>
<radialGradient id="paint4_radial_194_819" cx="0" cy="0" r="1" gradientUnits="userSpaceOnUse" gradientTransform="translate(600 600) rotate(90) scale(600)">
<stop stop-color="#0000FF"/>
<stop offset="1" stop-color="#FF00D5"/>
</radialGradient>
<radialGradient id="paint5_radial_194_819" cx="0" cy="0" r="1" gradientUnits="userSpaceOnUse" gradientTransform="translate(600 600) rotate(90) scale(600)">
<stop stop-color="#0000FF"/>
<stop offset="1" stop-color="#FF00D5"/>
</radialGradient>
<radialGradient id="paint6_radial_194_819" cx="0" cy="0" r="1" gradientUnits="userSpaceOnUse" gradientTransform="translate(600 600) rotate(90) scale(600)">
<stop stop-color="#0000FF"/>
<stop offset="1" stop-color="#FF00D5"/>
</radialGradient>
<radialGradient id="paint7_radial_194_819" cx="0" cy="0" r="1" gradientUnits="userSpaceOnUse" gradientTransform="translate(600 600) rotate(90) scale(600)">
<stop stop-color="#0000FF"/>
<stop offset="1" stop-color="#FF00D5"/>
</radialGradient>
<radialGradient id="paint8_radial_194_819" cx="0" cy="0" r="1" gradientUnits="userSpaceOnUse" gradientTransform="translate(600 600) rotate(-180) scale(600)">
<stop stop-color="#FF00D5"/>
<stop offset="1" stop-color="#2C00F0"/>
</radialGradient>
<radialGradient id="paint9_radial_194_819" cx="0" cy="0" r="1" gradientUnits="userSpaceOnUse" gradientTransform="translate(600 600) rotate(-180) scale(600)">
<stop stop-color="#FF00D5"/>
<stop offset="1" stop-color="#2C00F0"/>
</radialGradient>
<radialGradient id="paint10_radial_194_819" cx="0" cy="0" r="1" gradientUnits="userSpaceOnUse" gradientTransform="translate(600 600) rotate(-180) scale(600)">
<stop stop-color="#FF00D5"/>
<stop offset="1" stop-color="#2C00F0"/>
</radialGradient>
<radialGradient id="paint11_radial_194_819" cx="0" cy="0" r="1" gradientUnits="userSpaceOnUse" gradientTransform="translate(600 600) rotate(-180) scale(600)">
<stop stop-color="#FF00D5"/>
<stop offset="1" stop-color="#2C00F0"/>
</radialGradient>
<linearGradient id="paint12_linear_194_819" x1="897" y1="698.189" x2="537.32" y2="293.534" gradientUnits="userSpaceOnUse">
<stop stop-color="#0000FF"/>
<stop offset="1" stop-color="#FF4AD2"/>
</linearGradient>
</defs>
</svg>
